PathFileType	4	(X/Y/Z)	C:/Users/opensim2020/Desktop/walking_exp_matlab/subject03_walking12_straight_03.trc	
DataRate	CameraRate	NumFrames	NumMarkers	Units	OrigDataRate	OrigDataStartFrame	OrigNumFrames	
100.00	100.00	6	48	mm	100.00	1705	185	
Frame#	Time	LFHD			RFHD			LBHD			RBHD			C7			T10			CLAV			STRN			RBAK			LSHO			LUPA			LELB			LFRM			LWRA			LWRB			LFIN			RSHO			RUPA			RELB			RFRM			RWRA			RWRB			RFIN			LASI			RASI			LPSI			RPSI			LTHI			LKNE			LTIB			LANK			LHEE			LTOE			RTHI			RKNE			RTIB			RANK			RHEE			RTOE			*39			*40			*41			*42			*43			*44			*45			*46			*47			
		X1	Y1	Z1	X2	Y2	Z2	X3	Y3	Z3	X4	Y4	Z4	X5	Y5	Z5	X6	Y6	Z6	X7	Y7	Z7	X8	Y8	Z8	X9	Y9	Z9	X10	Y10	Z10	X11	Y11	Z11	X12	Y12	Z12	X13	Y13	Z13	X14	Y14	Z14	X15	Y15	Z15	X16	Y16	Z16	X17	Y17	Z17	X18	Y18	Z18	X19	Y19	Z19	X20	Y20	Z20	X21	Y21	Z21	X22	Y22	Z22	X23	Y23	Z23	X24	Y24	Z24	X25	Y25	Z25	X26	Y26	Z26	X27	Y27	Z27	X28	Y28	Z28	X29	Y29	Z29	X30	Y30	Z30	X31	Y31	Z31	X32	Y32	Z32	X33	Y33	Z33	X34	Y34	Z34	X35	Y35	Z35	X36	Y36	Z36	X37	Y37	Z37	X38	Y38	Z38	X39	Y39	Z39	X40	Y40	Z40	X41	Y41	Z41	X42	Y42	Z42	X43	Y43	Z43	X44	Y44	Z44	X45	Y45	Z45	X46	Y46	Z46	X47	Y47	Z47	X48	Y48	Z48	

47	0.460	-1011.85156	-574.31934	1612.83826	-881.68140	-601.40680	1599.70068	-1039.15222	-684.87061	1540.56189	-910.64478	-707.30969	1528.10706	-991.69220	-699.83759	1389.83423	-1008.39764	-742.98572	1083.46924	-977.09869	-574.57617	1316.88428	-986.86450	-534.03766	1149.12122	-913.10260	-763.50751	1213.86694	-1135.90161	-601.42993	1362.91919	-1218.21777	-584.77472	1173.96130	-1231.32434	-553.90326	1057.04822	-1208.28308	-469.61960	966.37836	-1154.42383	-392.32413	893.52606	-1201.43091	-408.07086	869.99719	-1177.93176	-339.45868	831.89056	-823.99121	-644.63110	1332.26929	-762.86102	-676.94745	1109.42615	-752.04779	-678.88745	995.55090	-750.42542	-690.68353	858.77527	-781.97870	-676.03992	758.40405	-743.50391	-713.90338	760.43878	-751.87689	-706.81934	686.11755	-1114.82129	-585.84631	905.20703	-879.50549	-590.63495	918.53033	-1069.45337	-748.25006	936.16193	-921.86603	-751.42334	947.75226	-1150.09546	-699.63428	612.33447	-1117.55017	-749.31891	439.73642	-1119.17920	-896.28857	298.10425	-1078.65161	-1029.44910	136.55658	-1044.41467	-1082.21326	131.60561	-1045.09399	-927.85229	26.98469	-833.03107	-566.59900	637.07690	-878.29779	-486.46817	480.97784	-869.08630	-499.93280	285.34549	-915.39240	-503.08624	69.03712	-965.85748	-548.76471	36.41048	-931.38379	-362.98630	33.64595	-975.72705	-678.61554	1644.48047																								 
48	0.470	-1012.08429	-561.24701	1615.42004	-881.91748	-588.14417	1602.40112	-1039.35315	-671.70508	1543.20422	-910.82349	-694.03369	1530.70923	-991.11530	-686.25848	1392.14539	-1007.43744	-729.14172	1085.73157	-977.26953	-561.14722	1319.55298	-987.02081	-519.94958	1151.87146	-911.70972	-749.10718	1216.20728	-1135.76904	-589.17474	1365.34753	-1218.12207	-574.41852	1175.96655	-1230.93420	-544.85773	1058.76489	-1208.70764	-461.24731	966.98260	-1155.68103	-384.05191	893.96844	-1201.69897	-400.75778	869.70837	-1179.38635	-331.64407	831.94470	-823.74921	-629.83356	1335.01563	-762.56720	-660.64191	1111.85059	-752.13531	-662.01935	997.98474	-750.44824	-673.56116	861.20837	-782.53406	-659.16046	760.77112	-743.39380	-696.38330	762.90906	-752.38525	-689.44275	688.41779	-1114.11816	-571.49841	907.51202	-878.92603	-575.43890	921.46423	-1068.68445	-733.72852	938.24396	-921.09680	-736.54999	950.01624	-1150.32581	-681.05798	612.49274	-1119.56567	-726.63647	438.69775	-1119.11133	-878.77753	301.67966	-1076.67712	-1017.05304	145.86984	-1041.05579	-1068.30237	144.83539	-1044.31360	-926.13812	27.09741	-832.27277	-552.77643	638.77142	-879.38794	-476.17172	480.76779	-870.43323	-492.01434	284.77649	-915.74347	-502.26443	69.21108	-965.91486	-548.57837	36.55648	-932.10779	-362.46234	33.35193	-975.88409	-665.34064	1647.06750																								 
49	0.480	-1012.30481	-548.05695	1617.88611	-882.20105	-574.87048	1604.98413	-1039.53528	-658.57227	1545.80945	-911.03375	-680.77032	1533.41064	-990.53290	-672.93005	1394.40552	-1006.30707	-715.28143	1087.98120	-977.63580	-547.67175	1322.31299	-987.43030	-505.94034	1154.66284	-910.19067	-734.61304	1218.61194	-1135.70544	-577.15540	1367.80774	-1217.57678	-564.24664	1178.11987	-1230.06323	-536.14459	1060.37585	-1209.08765	-453.17758	967.46423	-1157.17383	-375.76337	894.18915	-1202.11243	-393.92130	869.23047	-1181.18896	-324.78952	831.02917	-823.50348	-615.01514	1337.91626	-762.21863	-644.19653	1114.62622	-752.17493	-644.92871	1000.76849	-750.52808	-655.94672	863.99036	-782.96136	-641.75983	763.63239	-743.28003	-678.28510	765.67712	-752.49121	-671.60986	691.03198	-1113.55054	-557.69611	910.02301	-878.45929	-560.37341	924.22021	-1067.60754	-719.46838	940.53485	-920.05066	-721.46588	952.41492	-1150.92310	-661.79279	612.60333	-1122.15259	-702.98206	437.62851	-1119.18896	-859.40240	305.30099	-1074.62549	-1001.70233	154.71193	-1037.60132	-1051.31116	157.91666	-1042.77185	-924.11713	27.09706	-832.59448	-541.16565	639.43738	-879.80200	-467.32468	479.80798	-871.31726	-485.76898	284.21262	-916.23041	-501.65338	69.25520	-965.92731	-548.57684	36.58470	-932.70087	-362.19199	33.19528	-976.08502	-651.97461	1649.66748																								 
50	0.490	-1012.80127	-534.79944	1620.20386	-882.61432	-561.39758	1607.34070	-1039.76160	-645.48169	1548.35339	-911.24695	-667.55322	1536.00562	-989.98102	-659.83856	1396.48474	-1004.90552	-701.45227	1090.12939	-977.96100	-534.48865	1324.69348	-987.93250	-491.98209	1157.32813	-908.47742	-720.02252	1221.06079	-1135.65222	-565.40002	1370.16760	-1216.97961	-554.10938	1180.22937	-1229.25500	-527.31384	1062.12048	-1209.37988	-445.38486	967.78516	-1158.72363	-367.55167	894.13995	-1202.74524	-387.51788	868.64429	-1183.06262	-319.05643	828.88245	-823.39026	-599.97357	1340.93909	-761.77991	-627.70447	1117.52441	-752.06262	-627.75024	1003.73938	-750.51422	-638.11108	866.95551	-783.33026	-623.83966	766.64850	-743.10522	-659.81775	768.58325	-752.37286	-653.24261	693.72064	-1113.05310	-543.91400	912.76593	-878.19257	-545.39075	926.69037	-1066.24854	-705.52594	942.80066	-918.72852	-706.20148	954.83521	-1151.61804	-642.03180	612.49207	-1123.82666	-678.45105	436.57813	-1118.41223	-838.55103	308.76013	-1073.98352	-984.29791	162.23079	-1034.98328	-1031.97375	170.68314	-1041.89429	-921.65417	27.12031	-833.52667	-530.40253	639.82367	-880.10181	-459.50528	478.58060	-871.83606	-481.43024	284.05588	-916.73846	-501.63306	69.46029	-965.91785	-548.58386	36.67929	-933.21558	-361.98657	33.06167	-975.88550	-639.01514	1652.21643																								 
51	0.500	-1013.30463	-521.47333	1622.31067	-883.12286	-547.90485	1609.43860	-1040.04199	-632.42609	1550.75317	-911.50446	-654.25983	1538.56799	-989.45172	-646.96198	1398.36243	-1003.20386	-687.52142	1091.93115	-978.42688	-521.24542	1327.02979	-988.68097	-478.09335	1159.86353	-906.57306	-705.44196	1223.47021	-1135.65515	-553.93121	1372.36707	-1216.39624	-543.92200	1182.14612	-1228.43811	-518.56183	1063.59912	-1209.91785	-437.77072	968.05096	-1160.30139	-360.34698	892.86969	-1203.62463	-381.51831	867.77771	-1185.18420	-313.97687	825.85638	-823.27008	-585.00244	1343.88733	-761.20453	-611.12195	1120.48682	-751.82208	-610.55389	1006.69708	-750.31879	-620.02350	869.91760	-783.64929	-605.50873	770.09967	-742.86829	-641.19312	771.33093	-753.01099	-634.04523	696.44061	-1112.84192	-530.62531	915.37732	-878.24561	-530.62537	928.86017	-1064.84045	-692.06311	945.14368	-917.29895	-691.01202	957.45331	-1152.30933	-621.97681	612.25104	-1124.92651	-653.51575	435.49817	-1117.39209	-815.71777	312.02054	-1074.32349	-964.37671	169.02724	-1034.95825	-1011.12073	183.51465	-1041.47278	-915.28662	30.46521	-834.23315	-519.62115	640.49261	-880.40100	-452.44254	477.50717	-872.23236	-478.30927	283.92770	-916.83929	-501.62650	69.55624	-965.89063	-548.60577	36.77775	-933.47961	-361.84415	32.92409	-976.36066	-625.42914	1654.58459																								 
52	0.510	-1013.89331	-508.15295	1624.24854	-883.48901	-534.33649	1611.71704	-1040.43896	-619.39703	1553.06165	-911.79871	-641.05066	1540.98743	-988.85089	-634.23169	1399.86377	-1001.48285	-673.74060	1093.74011	-979.02466	-507.99823	1329.18274	-989.47107	-464.32907	1162.22839	-904.50000	-690.86102	1225.76123	-1135.89783	-542.65961	1374.40759	-1215.77136	-533.80029	1183.81689	-1227.63013	-509.82834	1065.01526	-1210.37244	-430.30969	968.04425	-1162.17712	-352.94482	891.47455	-1204.80933	-375.89383	866.57495	-1187.40710	-309.61877	822.06421	-823.34912	-569.79279	1346.67737	-760.53314	-594.46039	1123.29700	-751.44336	-593.25427	1009.55670	-750.11011	-601.55176	872.65674	-783.69733	-586.09918	772.80957	-742.69366	-621.65405	773.97644	-753.06006	-614.24670	698.91681	-1112.90332	-517.81989	917.84515	-878.44769	-515.84125	930.72894	-1063.48889	-678.85022	947.05316	-915.87531	-676.08154	960.10944	-1152.93750	-602.21704	611.90350	-1125.36719	-628.01758	434.37997	-1117.05713	-791.59033	314.78830	-1074.55640	-943.82214	176.44098	-1036.14587	-989.56226	195.48087	-1041.51465	-903.11908	36.48374	-834.71088	-509.88809	641.35352	-880.50922	-446.08865	476.58350	-872.19635	-475.78360	283.69913	-916.95117	-501.49960	69.57163	-965.76245	-548.65356	36.90197	-933.61780	-361.75204	32.83956	-976.97955	-611.77289	1656.89478																								 
